<svg width="30" height="30" viewBox="0 0 30 30" fill="none" xmlns="http://www.w3.org/2000/svg">
<g clip-path="url(#clip0_46_81)">
<path fill-rule="evenodd" clip-rule="evenodd" d="M16.875 3.75C19.6929 3.75 22.3954 4.86942 24.388 6.86199C26.3806 8.85456 27.5 11.5571 27.5 14.375C27.5 17.1929 26.3806 19.8954 24.388 21.888C22.3954 23.8806 19.6929 25 16.875 25H16.25V26.2375C16.25 26.4034 16.2173 26.5677 16.1538 26.7209C16.0903 26.8742 15.9971 27.0134 15.8798 27.1307C15.7624 27.2479 15.6231 27.3409 15.4698 27.4043C15.3165 27.4676 15.1521 27.5002 14.9862 27.5C11.9112 27.4975 8.79625 26.4713 6.4325 24.37C4.0475 22.2475 2.5025 19.0937 2.5 15.0112V14.375C2.5 11.5571 3.61942 8.85456 5.61199 6.86199C7.60456 4.86942 10.3071 3.75 13.125 3.75H16.875ZM10.625 12.5C10.1277 12.5 9.6508 12.6975 9.29917 13.0492C8.94754 13.4008 8.75 13.8777 8.75 14.375C8.75 14.8723 8.94754 15.3492 9.29917 15.7008C9.6508 16.0525 10.1277 16.25 10.625 16.25C11.1223 16.25 11.5992 16.0525 11.9508 15.7008C12.3025 15.3492 12.5 14.8723 12.5 14.375C12.5 13.8777 12.3025 13.4008 11.9508 13.0492C11.5992 12.6975 11.1223 12.5 10.625 12.5ZM19.375 12.5C18.8777 12.5 18.4008 12.6975 18.0492 13.0492C17.6975 13.4008 17.5 13.8777 17.5 14.375C17.5 14.8723 17.6975 15.3492 18.0492 15.7008C18.4008 16.0525 18.8777 16.25 19.375 16.25C19.8723 16.25 20.3492 16.0525 20.7008 15.7008C21.0525 15.3492 21.25 14.8723 21.25 14.375C21.25 13.8777 21.0525 13.4008 20.7008 13.0492C20.3492 12.6975 19.8723 12.5 19.375 12.5V12.5Z" fill="#9747FF"/>
</g>
<defs>
<clipPath id="clip0_46_81">
<rect width="30" height="30" fill="white"/>
</clipPath>
</defs>
</svg>
